PathFileType	4	(X/Y/Z)	E:\Marcel_BSc\Ayumi_22_01_2025\22-01-2025\conv_dl_2.trc
DataRate	CameraRate	NumFrames	NumMarkers	Units	OrigDataRate	OrigDataStartFrame	OrigNumFrames
200.0	200.0	6	48	mm	200.0	1447	2314	
Frame#	Time	FHD			LBHD			RBHD			RBAR			LBAR			RSACR			LSACR			LASI			USACR			LTHI2			C7			CLAV			T10			RSHO			LSHO			LTHI1			LTHI3			LTIB1			LTIB2			LTIB3			LMMAL			LLMAL			LHEE			LMT1			LMT5			LMT3			RTHI1			RTHI2			RTHI3			RTIB1			RTIB3			RTIB2			RLMAL			RMMAL			RHEE			RMT5			RMT1			RMT3			LDUPA			LMUPA			LUUPA			LRAD			RUL			RRAD			RUFIN			RMUPA			RDUPA			RUUPA			
		X1	Y1	Z1	X2	Y2	Z2	X3	Y3	Z3	X4	Y4	Z4	X5	Y5	Z5	X6	Y6	Z6	X7	Y7	Z7	X8	Y8	Z8	X9	Y9	Z9	X10	Y10	Z10	X11	Y11	Z11	X12	Y12	Z12	X13	Y13	Z13	X14	Y14	Z14	X15	Y15	Z15	X16	Y16	Z16	X17	Y17	Z17	X18	Y18	Z18	X19	Y19	Z19	X20	Y20	Z20	X21	Y21	Z21	X22	Y22	Z22	X23	Y23	Z23	X24	Y24	Z24	X25	Y25	Z25	X26	Y26	Z26	X27	Y27	Z27	X28	Y28	Z28	X29	Y29	Z29	X30	Y30	Z30	X31	Y31	Z31	X32	Y32	Z32	X33	Y33	Z33	X34	Y34	Z34	X35	Y35	Z35	X36	Y36	Z36	X37	Y37	Z37	X38	Y38	Z38	X39	Y39	Z39	X40	Y40	Z40	X41	Y41	Z41	X42	Y42	Z42	X43	Y43	Z43	X44	Y44	Z44	X45	Y45	Z45	X46	Y46	Z46	X47	Y47	Z47	X48	Y48	Z48	
1447	7.225	24.148382	1555.5446	-643.92725	40.698586	1543.5881	-582.09052	72.782692	1531.2395	-710.74615	240.67456	681.46088	-1738.3434	153.84566	716.25543	481.63965	409.42004	968.57446	-658.7522	403.21692	970.48267	-585.50244				399.12582	980.01532	-622.69189	245.36543	557.83716	-428.07581	248.57587	1384.2025	-622.06604	127.02782	1280.6075	-632.00964	348.38602	1129.6573	-623.7674	143.41127	1298.2245	-792.5379	156.36436	1304.2916	-457.7019	290.95828	607.52527	-427.65735	294.34027	542.83325	-441.74335	262.30115	240.26228	-426.36813	319.34409	234.3783	-420.62442	285.99802	180.35327	-433.89587	282.05362	75.018852	-517.40808	303.95255	72.502373	-443.41953	341.92572	36.377144	-489.3223	145.86871	43.461735	-470.11545	175.41446	27.28367	-394.46262	148.75774	41.653904	-435.97717	313.30521	605.75012	-813.70459	267.17679	558.95789	-814.49957	313.45505	542.34442	-797.51855	274.56171	279.01602	-812.46759	297.80823	218.19495	-800.58911	324.10236	278.36044	-803.45959	312.53775	74.394859	-778.18719	271.41922	82.544495	-711.50452	348.83957	31.918566	-728.52832	179.55048	30.420498	-820.8006	149.93414	41.31929	-760.58649	158.38437	38.3978	-790.28925	251.34436	1100.2953	-387.63727	202.06145	1103.1028	-397.15311	205.71083	1164.8273	-399.73929	215.70497	776.72974	-344.60883	168.28781	777.47711	-916.86969	165.04955	769.95557	-854.27112	160.30736	694.34656	-856.34888	192.33281	1179.2233	-861.94214	191.66306	1118.4026	-875.17151	241.60155	1179.0742	-865.29443
1448	7.23	20.839859	1552.4611	-642.95941	37.342434	1540.3295	-581.65833	69.093842	1528.5623	-710.50995	240.89665	680.1225	-1738.2153	154.37416	714.73529	481.69827	410.17838	968.51025	-658.65875	403.95346	970.2287	-585.52429				399.7464	979.7851	-622.70233	244.91237	557.58563	-427.73837	246.9473	1382.827	-622.25201	126.02267	1278.7148	-632.00293	348.3017	1129.0667	-623.83948	142.06895	1296.4617	-792.50385	155.37202	1302.512	-457.80508	290.78229	606.96472	-427.13174	293.76303	542.28955	-441.26627	261.7403	240.05603	-426.07721	318.83746	234.39549	-420.54291	285.59744	180.29778	-433.69583	282.0242	75.052773	-517.37762	303.90686	72.477257	-443.35846	341.88913	36.42622	-489.29468	145.85515	43.489697	-470.09875	175.43141	27.27689	-394.4758	148.62694	41.831745	-435.52292	313.40533	605.13708	-813.78387	267.01343	558.57941	-814.72949	313.70981	541.8183	-798.67151	273.84027	278.84027	-812.74731	297.27484	218.08778	-800.79346	323.31122	278.31183	-803.69934	312.42365	74.417839	-778.22974	271.37274	82.540977	-711.50873	348.87909	31.94005	-728.51868	179.55562	30.416336	-820.79108	149.92802	41.302937	-760.57318	158.40436	38.360226	-790.26263	251.20845	1098.9441	-387.75143	201.84964	1101.5946	-397.25241	205.14682	1163.4191	-399.8541	215.99792	775.31921	-344.52097	168.42215	775.85864	-916.81464	165.18265	768.41437	-854.21124	160.61923	692.8501	-856.17175	191.33386	1177.7358	-861.94678	190.91803	1116.8682	-875.24109	240.5798	1177.8214	-865.38727
1449	7.235	17.109074	1548.9097	-642.47607	33.977268	1537.0114	-581.22919	65.430252	1525.656	-710.17493	240.74124	678.51538	-1738.2791	154.68974	713.09174	481.39819	411.18683	967.85297	-658.56012	404.74924	969.90942	-585.52325				400.51801	979.42468	-622.72321	244.52434	557.40826	-427.39731	245.28445	1381.7231	-622.29456	124.99882	1276.7776	-632.0058	348.11011	1128.5977	-623.92615	140.73845	1294.7001	-792.4024	154.35574	1300.757	-457.7868	290.72122	606.35498	-426.62244	293.22461	541.85248	-440.79147	261.18292	239.80173	-425.77911	318.2666	234.38045	-420.31802	284.99078	180.26514	-433.00684	282.01309	75.062218	-517.336	303.83554	72.491402	-443.26849	341.88989	36.428535	-489.27249	145.87576	43.459473	-470.10611	175.4164	27.271376	-394.47198	148.6235	41.815365	-435.52597	313.36255	604.48517	-813.91919	266.74588	558.25439	-814.98083	312.70288	541.19263	-797.65106	273.11658	278.66141	-813.04376	296.6976	218.00409	-800.9729	322.55536	278.22333	-804.01062	312.31421	74.41777	-778.27075	271.31616	82.52758	-711.50177	348.91595	31.95075	-728.51776	179.55154	30.391777	-820.78894	150.02087	41.142487	-760.8764	158.39288	38.329514	-790.23834	250.99867	1097.6069	-387.96838	201.64871	1100.0532	-397.32803	204.7482	1161.8983	-399.99393	216.29025	773.87909	-344.46487	168.48799	774.31213	-916.76288	165.31923	766.86182	-854.13354	160.90714	691.30908	-856.0481	190.32567	1176.2134	-861.9657	190.09355	1115.3724	-875.26562	239.60925	1176.4075	-865.4975
1450	7.24	13.446755	1545.2325	-641.96088	30.654959	1533.6025	-580.82184	61.764874	1522.6816	-709.8656	240.9707	677.15613	-1738.0674	155.37505	711.61389	481.79276	411.62579	967.31042	-658.84155	405.58331	969.64258	-585.49969				401.33939	978.7713	-622.75555	244.16959	557.27826	-427.04575	243.54311	1380.8807	-622.38226	123.97308	1274.8531	-631.88733	347.99988	1128.0083	-624.00024	139.4364	1292.8496	-792.30396	153.34521	1299.0806	-457.81027	290.59399	606.07349	-426.08524	292.7547	541.34979	-440.28439	260.85809	239.42046	-425.35165	317.97092	234.21805	-420.23621	284.66699	180.18413	-432.81812	281.97205	75.113564	-517.26794	303.77499	72.48542	-443.19354	341.84995	36.466354	-489.25925	145.82144	43.579182	-470.04312	175.42117	27.269983	-394.4642	148.61453	41.8181	-435.49435	313.41431	603.8067	-814.02997	266.37741	557.84381	-815.31403	312.79767	539.91571	-798.46783	272.30716	278.49164	-813.28223	296.086	217.87563	-801.1889	321.8071	278.16833	-804.31824	312.2406	74.508965	-778.25952	271.27173	82.453064	-711.48419	348.93933	31.960667	-728.51245	179.54926	30.401863	-820.78418	150.05138	41.106148	-760.87335	158.38229	38.33604	-790.23517	250.96616	1096.2424	-388.1839	201.59425	1098.515	-397.35089	204.48268	1160.3551	-400.03165	216.56999	772.44446	-344.37677	168.59102	772.72528	-916.68066	165.4787	765.26538	-854.04706	161.17961	689.82196	-855.91071	189.32945	1174.6462	-861.92944	189.22194	1113.881	-875.2713	238.55002	1175.0507	-865.58179
1451	7.245	9.7879028	1541.5088	-641.46802	27.285299	1530.1696	-580.42352	58.085949	1519.6224	-709.52881	240.80428	675.36212	-1738.2224	155.76695	710.00476	481.58389	412.28906	967.3382	-658.70117	406.36719	969.11713	-585.55499				402.23923	978.67511	-622.81342	243.95496	557.09277	-426.65784	241.91705	1379.5497	-622.49121	122.97731	1272.8654	-631.84705	347.90466	1127.3859	-624.04028	138.13309	1291.0303	-792.1358	152.43773	1297.2697	-457.74481	290.6601	605.45917	-425.5433	292.39465	540.98663	-439.73953	259.70349	239.39441	-425.22513	316.96582	234.61099	-420.18655	284.24176	180.05995	-432.6467	281.94046	75.159264	-517.22015	303.70029	72.465027	-443.1138	341.82343	36.51152	-489.22641	145.77065	43.605579	-470.03387	175.40388	27.273933	-394.45789	148.60133	41.7906	-435.49777	313.39816	603.11908	-814.18622	266.04181	557.42786	-815.60645	311.75317	539.89636	-797.87054	271.47147	278.42419	-813.56659	295.49673	217.68506	-801.43982	320.96368	278.13104	-804.62225	312.142	74.465096	-778.34607	271.21555	82.406326	-711.47717	348.96951	31.96777	-728.52423	179.5381	30.410452	-820.78174	149.95612	41.27354	-760.56238	158.37445	38.355061	-790.25513	250.9774	1094.8564	-388.39548	201.54178	1096.9515	-397.37512	204.27582	1158.7955	-400.08414	216.89284	770.89807	-344.29709	168.67657	771.17395	-916.58197	165.71364	763.80237	-853.34131	161.44957	688.20074	-855.84149	188.27727	1173.0996	-861.85028	188.4072	1112.2865	-875.26465	237.48302	1173.7117	-865.64319
1452	7.25	6.0925417	1537.7817	-641.00824	23.984278	1526.7021	-579.96454	54.473171	1516.4021	-709.19843	241.0836	674.13348	-1737.8853	156.28389	708.42352	481.66336	412.98743	966.82001	-658.71509	407.17181	968.89435	-585.47791				402.8569	977.88586	-622.99805	243.77364	557.00366	-426.20917	240.24324	1378.2588	-622.53851	122.0219	1270.8623	-631.72766	347.81125	1126.8038	-624.0976	136.80231	1289.1371	-791.96832	151.41223	1295.5919	-457.58981	290.64417	605.21307	-424.97699	292.11224	540.6391	-439.09866	257.9014	239.94167	-425.39825	315.43552	235.55695	-420.13446	283.76712	179.91173	-432.31265	281.89609	75.184425	-517.19611	303.63947	72.463539	-443.02521	341.79492	36.556416	-489.21463	145.77972	43.555416	-470.06503	175.41449	27.279371	-394.44827	148.76913	41.617455	-435.98346	313.24579	602.44775	-814.38525	265.75739	557.08899	-815.83752	311.23944	539.23511	-797.97723	270.7865	278.15414	-813.85223	294.93643	217.57462	-801.66919	320.21652	278.02542	-804.95782	312.03412	74.465607	-778.39648	271.14737	82.405144	-711.47803	348.98468	31.992636	-728.50037	179.5392	30.398708	-820.78424	149.95792	41.262104	-760.53833	158.38695	38.314629	-790.22144	251.01596	1093.4091	-388.63708	201.54262	1095.4313	-397.38113	204.04608	1157.2518	-400.10739	217.17114	769.45465	-344.18417	168.80014	769.54156	-916.5213	165.8243	762.07861	-853.8667	161.70715	686.49524	-855.79742	187.25255	1171.5105	-861.7514	187.50784	1110.7687	-875.21118	236.42075	1172.3213	-865.71277
